<?xml version="1.0" encoding="utf-8"?>
<svg version="1.1" id="Capa_1" xmlns="http://www.w3.org/2000/svg" xmlns:xlink="http://www.w3.org/1999/xlink" x="0px" y="0px"
	 viewBox="0 0 539.3 113.1" style="enable-background:new 0 0 539.3 113.1;" xml:space="preserve">
<style type="text/css">
	.st0{fill:#FFDC09;}
	.st1{fill:#1B2949;}
</style>
<g>
	<path class="st0" d="M92.7,56.2H75.9V35.8H55.4V19h37.3V56.2z M111.3,112.3V0.4H69.9H-0.5v74.4c0,20.7,16.8,37.5,37.5,37.5H111.3z"
		/>
	<path class="st1" d="M328.8,65.1h-9.9v47.1h10L328.8,65.1L328.8,65.1z M276.8,65.1h-10v47.1h10V92.8h19.8v19.5h9.9V65.1h-4.9
		c-2.8,0-5.1,2.3-5.1,5.1v13.4h-19.8V65.1z M204.3,65.1h-9.9v47.1h9.9V65.1z M165.8,74.3c6.9,0,10.2,2,10.2,6.8c0,4.6-3.4,7-10.2,7
		h-7.3V74.3H165.8z M167.5,65.1h-19.1v47.1h10V97.3h9.1c5.4,0,9.9-1.5,13.3-4.5c3.4-3,5.1-7,5.1-11.9c0-4.8-1.7-8.7-5-11.5
		C177.5,66.5,173.1,65.1,167.5,65.1 M176.9,32.8c0,4-2.9,5.5-8.5,5.5h-10V27.7h10.3C174.2,27.7,176.9,29.4,176.9,32.8 M175.8,14.4
		c0,3.2-2.6,4.9-7.8,4.9h-9.5V9.6h9.1C173.4,9.6,175.8,10.9,175.8,14.4 M181,23c3.2-2.5,4.8-5.7,4.8-9.5c0-8.4-6.4-13-16.3-13h-21.2
		v47.1h22.3c4.9,0,8.8-1.3,11.8-3.8c3-2.6,4.5-5.9,4.5-10C187,29.4,185,25.8,181,23 M220,29.4h-11.7l5.9-15.4L220,29.4z M227,47.5
		h10.3L220.2,3.6c-0.8-2-2.6-3.2-4.7-3.2h-6.1L191,47.5h10.4l3.7-9.3h18.2L227,47.5z M238.1,64.4c-7.1,0-12.9,2.2-17.6,6.7
		c-4.7,4.4-7.1,10.4-7.1,17.7c0,7.3,2.4,13.1,7.1,17.6c4.8,4.4,10.8,6.7,17.9,6.7c7.9,0,14.3-3,19.2-8.9l-6.7-7.1
		c-3.2,4.4-7.5,6.6-12.8,6.6c-4.1,0-7.5-1.3-10.3-4c-2.8-2.7-4.2-6.4-4.2-11c0-4.6,1.4-8.2,4.2-10.8c2.8-2.7,6.1-4,9.7-4
		c3.6,0,6.9,1.1,9.5,3.2c2,1.6,4.9,1.3,6.7-0.5l3.1-3.2C252.1,67.3,245.8,64.4,238.1,64.4 M276.6,47.5h9.1V0.4h-9.9v31.9L258.2,2.9
		c-0.9-1.5-2.6-2.5-4.4-2.5h-9.1v47.1h10V15.7L272.3,45C273.2,46.6,274.8,47.5,276.6,47.5 M309.3,34.9c-2.8-2.7-4.2-6.4-4.2-11
		c0-4.6,1.4-8.2,4.2-10.8c2.8-2.7,6-4,9.7-4c3.6,0,6.9,1.2,9.6,3.2c2,1.6,4.8,1.2,6.6-0.6l3.1-3.1c-4.8-5.9-11-8.9-18.7-8.9
		c-7.1,0-12.9,2.2-17.6,6.7c-4.7,4.4-7.1,10.3-7.1,17.7c0,7.3,2.4,13.1,7.1,17.5c4.8,4.4,10.7,6.7,17.9,6.7c7.9,0,14.3-3,19.2-8.9
		l-6.7-7.1c-3.2,4.4-7.5,6.6-12.8,6.6C315.4,38.9,312,37.6,309.3,34.9 M350.2,65.1H341v47.1h10V80.5l17.5,29.3
		c0.9,1.5,2.6,2.5,4.4,2.5h9.1V65.1h-9.9v31.9l-17.6-29.5C353.6,66.1,352,65.1,350.2,65.1 M382.4,23.9c0,4.2-1.3,7.7-3.8,10.6
		c-2.5,2.9-5.9,4.3-10.2,4.3c-4.4,0-7.8-1.4-10.3-4.3c-2.5-2.9-3.8-6.4-3.8-10.6c0-4.2,1.3-7.7,3.8-10.5c2.6-2.9,6.1-4.3,10.3-4.3
		c4.1,0,7.4,1.5,10,4.4C381,16.3,382.4,19.8,382.4,23.9 M385.4,41.4c4.7-4.6,7.1-10.4,7.1-17.5c0-7-2.4-12.8-7.1-17.3
		c-4.7-4.6-10.5-6.9-17.3-6.9c-6.8,0-12.6,2.3-17.2,6.9c-4.6,4.6-7,10.3-7,17.3c0,7.1,2.4,12.8,7,17.5c4.6,4.6,10.4,6.9,17.2,6.9
		C375,48.2,380.7,46,385.4,41.4 M405.6,99.6c-2.8-2.7-4.2-6.4-4.2-11c0-4.6,1.4-8.2,4.2-10.8c2.8-2.7,6.1-4,9.8-4
		c3.6,0,6.9,1.2,9.5,3.2c2,1.6,4.8,1.2,6.6-0.6l3.1-3.2c-4.8-5.9-11-8.9-18.8-8.9c-7.1,0-12.9,2.2-17.6,6.7
		c-4.7,4.4-7.1,10.4-7.1,17.7c0,7.3,2.4,13.1,7.1,17.6c4.8,4.4,10.8,6.7,18,6.7c7.9,0,14.3-3,19.2-8.9l-6.7-7.1
		c-3.2,4.4-7.5,6.6-12.8,6.6C411.8,103.7,408.4,102.3,405.6,99.6 M474.3,112.3h9.9V65.1h-4.9c-2.8,0-5.1,2.3-5.1,5.1v13.4h-19.8
		V65.1h-10v47.1h10V92.8h19.8V112.3z M521.3,94.1h-11.7l5.9-15.4L521.3,94.1z M538.6,112.3l-17.2-43.9c-0.8-1.9-2.6-3.2-4.7-3.2
		h-6.1l-18.4,47.1h10.4l3.7-9.3h18.2l3.8,9.3H538.6z"/>
	<polygon class="st1" points="93,57 75.6,57 75.6,35.9 54.4,35.9 54.4,18.5 93,18.5 	"/>
</g>
</svg>
